<?xml version="1.0" standalone="no"?>
<!DOCTYPE svg PUBLIC "-//W3C//DTD SVG 20010904//EN"
 "http://www.w3.org/TR/2001/REC-SVG-20010904/DTD/svg10.dtd">
<svg version="1.0" xmlns="http://www.w3.org/2000/svg"
 width="700.000000pt" height="700.000000pt" viewBox="0 0 700.000000 700.000000"
 preserveAspectRatio="xMidYMid meet">
<metadata>
Created by potrace 1.11, written by Peter Selinger 2001-2013
</metadata>
<g transform="translate(0.000000,700.000000) scale(0.100000,-0.100000)"
fill="#000000" stroke="none">
<path d="M5620 6988 c0 -4 -6 -5 -14 -2 -8 3 -17 1 -21 -5 -3 -6 -17 -11 -30
-11 -13 0 -27 -5 -31 -11 -3 -6 -15 -9 -25 -6 -10 3 -17 1 -16 -3 1 -4 -2 -9
-8 -11 -5 -1 -24 -8 -41 -15 -17 -7 -34 -10 -38 -7 -3 4 -6 1 -6 -6 0 -8 -8
-11 -20 -8 -12 3 -23 -1 -28 -9 -5 -8 -19 -17 -33 -18 -33 -5 -89 -29 -89 -38
0 -4 -7 -5 -15 -2 -8 4 -15 2 -15 -4 0 -6 -9 -8 -20 -5 -11 3 -20 0 -20 -6 0
-6 -9 -11 -20 -11 -11 0 -20 -5 -20 -11 0 -5 -4 -7 -10 -4 -5 3 -22 -1 -38 -9
-16 -8 -32 -12 -36 -9 -3 4 -6 1 -6 -6 0 -7 -4 -10 -9 -7 -12 8 -42 -4 -36
-14 3 -5 -6 -7 -20 -5 -14 1 -25 -1 -25 -5 0 -4 -11 -11 -25 -14 -13 -3 -37
-11 -52 -18 -15 -6 -37 -13 -48 -15 -10 -2 -22 -8 -26 -14 -3 -6 -10 -10 -15
-10 -10 1 -74 -19 -89 -28 -5 -3 -17 -7 -26 -8 -8 -1 -28 -9 -44 -17 -16 -8
-32 -13 -37 -10 -4 3 -8 0 -8 -7 0 -7 -3 -9 -7 -6 -3 4 -17 0 -30 -8 -13 -9
-23 -13 -23 -10 0 3 -10 0 -22 -7 -13 -6 -32 -13 -43 -15 -11 -2 -35 -11 -54
-19 -18 -9 -39 -17 -45 -19 -6 -1 -27 -8 -46 -16 -19 -7 -38 -12 -42 -11 -5 1
-8 -3 -8 -10 0 -6 -3 -9 -6 -5 -4 3 -19 0 -35 -9 -16 -8 -29 -12 -29 -8 0 4
-7 1 -16 -7 -9 -7 -24 -13 -34 -14 -10 -1 -25 -8 -33 -16 -8 -8 -25 -21 -37
-29 -13 -8 -36 -26 -51 -38 -16 -13 -29 -21 -29 -17 0 3 -17 -11 -37 -32 -20
-21 -32 -31 -28 -23 5 8 -14 -5 -43 -28 -29 -24 -52 -41 -52 -37 0 4 -9 -3
-20 -16 -10 -13 -19 -20 -20 -16 0 4 -11 -4 -25 -19 -14 -15 -25 -23 -25 -19
0 5 -7 0 -15 -11 -8 -10 -15 -15 -15 -9 0 5 -7 -1 -16 -13 -8 -12 -20 -20 -25
-17 -5 4 -9 -1 -9 -10 0 -9 -4 -14 -9 -10 -5 3 -16 -4 -24 -15 -7 -11 -17 -17
-20 -14 -4 4 -9 -1 -13 -10 -3 -9 -10 -16 -15 -16 -5 0 -20 -10 -35 -22 -14
-13 -27 -22 -30 -20 -2 1 -12 -6 -22 -15 -28 -27 -91 -75 -94 -72 -2 2 -15 -8
-29 -21 -14 -14 -35 -32 -48 -40 -13 -8 -31 -22 -41 -30 -47 -38 -76 -58 -82
-59 -5 -1 -16 -9 -27 -18 -10 -10 -31 -27 -45 -38 -15 -11 -33 -26 -41 -32 -7
-7 -16 -13 -19 -13 -3 0 -14 -8 -24 -17 -10 -10 -29 -25 -41 -33 -13 -8 -31
-22 -41 -30 -43 -35 -74 -55 -82 -52 -5 1 -7 -1 -4 -6 5 -9 -54 -48 -67 -44
-4 1 -6 -2 -5 -7 3 -10 -76 -71 -93 -71 -5 0 -7 -4 -4 -10 3 -5 1 -10 -5 -10
-6 0 -17 -6 -24 -12 -8 -7 -24 -20 -36 -28 -12 -8 -34 -25 -48 -37 -15 -13
-33 -23 -40 -23 -7 0 -10 -4 -7 -10 3 -5 -6 -12 -20 -16 -14 -3 -25 -12 -25
-20 0 -8 -6 -11 -17 -7 -10 4 -14 2 -10 -4 3 -5 -5 -16 -18 -23 -14 -7 -25
-17 -25 -22 0 -4 -10 -8 -22 -8 -12 0 -18 -3 -15 -7 8 -7 -34 -39 -46 -35 -5
1 -6 -2 -2 -8 3 -5 -1 -10 -9 -10 -9 0 -16 -5 -16 -11 0 -5 -4 -8 -9 -5 -5 3
-12 -1 -15 -10 -3 -8 -10 -12 -16 -9 -6 4 -7 -1 -3 -11 4 -11 3 -15 -5 -10 -6
3 -23 -5 -38 -19 -30 -28 -29 -45 2 -17 27 23 96 58 108 54 6 -2 8 0 4 4 -10
9 41 36 53 28 5 -3 8 0 7 8 -2 7 3 12 10 11 6 -2 12 2 12 7 0 6 7 10 15 10 8
0 15 5 15 11 0 5 4 8 8 5 5 -3 18 4 30 14 12 11 28 20 37 20 8 0 15 5 15 10 0
6 4 10 10 10 5 0 44 20 86 45 41 25 80 45 85 45 5 0 9 5 9 10 0 6 6 10 14 10
8 0 21 6 28 13 7 7 31 21 53 31 22 11 42 22 45 25 3 3 19 13 35 21 17 8 36 21
43 28 7 6 20 12 28 12 8 0 14 5 14 10 0 6 6 10 14 10 8 0 21 6 28 13 7 6 32
21 55 32 24 11 43 24 43 28 0 5 4 5 10 2 6 -3 10 -1 10 4 0 6 7 11 15 11 8 0
15 5 15 11 0 5 5 7 10 4 6 -3 13 1 16 9 3 9 10 13 16 10 5 -3 17 4 28 16 10
12 22 21 27 21 19 -1 43 11 38 20 -5 8 24 14 48 10 5 -1 6 3 3 8 -5 8 16 23
37 25 4 1 12 8 17 16 5 8 10 11 10 7 0 -4 17 4 37 18 21 14 46 25 56 25 10 0
16 4 13 9 -3 5 8 14 24 20 17 5 30 15 30 20 0 6 3 10 8 10 21 -4 32 2 26 14
-4 6 -4 9 1 5 8 -8 137 59 143 74 2 4 8 6 13 2 5 -3 12 2 15 10 3 9 10 14 14
11 5 -3 15 1 23 9 8 8 17 12 21 9 3 -4 6 -1 6 5 0 11 38 28 55 23 6 -1 7 1 3
5 -4 4 14 18 40 32 26 14 50 30 54 36 4 6 8 7 8 3 0 -5 13 1 29 12 16 12 34
21 39 21 6 0 12 3 14 8 3 7 37 27 111 65 20 10 37 23 37 29 0 5 4 7 9 3 5 -3
17 2 25 11 9 8 16 13 16 10 0 -3 25 10 55 29 30 19 57 35 61 35 4 0 23 12 42
27 20 15 32 20 27 12 -4 -8 2 -4 14 9 12 12 31 22 43 22 12 0 18 3 15 7 -4 3
11 14 33 24 22 10 40 23 40 30 0 7 3 10 6 6 3 -3 22 4 42 15 21 12 49 28 65
35 15 8 27 19 27 24 0 5 3 8 8 8 19 -3 45 2 39 7 -7 7 60 46 80 47 7 0 11 3 8
5 -3 3 7 12 22 19 16 7 35 17 43 23 8 5 44 26 80 47 36 20 68 41 71 46 4 5 12
6 18 3 6 -4 11 0 11 11 0 15 2 16 10 3 8 -13 10 -12 10 3 0 10 4 16 9 12 5 -3
15 1 23 8 15 15 49 31 61 29 4 -1 7 2 7 6 0 9 40 30 50 28 3 0 17 9 30 22 14
12 35 25 47 28 13 4 23 10 23 15 0 5 6 9 13 9 7 0 24 10 37 23 14 12 27 21 30
20 10 -5 40 8 40 18 0 5 7 9 15 9 8 0 15 5 15 12 0 6 3 8 6 5 4 -4 19 2 34 13
15 11 30 17 34 13 3 -3 6 -1 6 5 0 7 7 12 15 12 8 0 15 4 15 10 0 5 -11 9 -25
8 -14 -1 -25 -6 -25 -10z"/>
<path d="M5760 6851 c0 -6 -3 -10 -7 -10 -21 3 -34 -2 -28 -11 4 -6 -7 -13
-24 -16 -17 -4 -31 -10 -31 -15 0 -5 -5 -9 -11 -9 -6 0 -24 -9 -40 -21 -16
-11 -29 -17 -29 -12 0 4 -4 3 -8 -2 -4 -6 -19 -16 -34 -24 -15 -8 -24 -19 -21
-24 4 -6 0 -8 -10 -4 -10 3 -17 2 -17 -4 0 -6 -4 -8 -9 -4 -5 3 -15 -1 -23 -8
-15 -16 -49 -31 -62 -28 -5 1 -6 -5 -2 -14 5 -13 1 -15 -16 -9 -20 6 -21 5
-10 -9 11 -13 10 -15 -7 -10 -25 6 -54 -14 -44 -31 4 -6 -1 -5 -10 3 -12 9
-17 10 -17 2 0 -7 -4 -9 -10 -6 -5 3 -10 -1 -10 -9 0 -10 -6 -13 -15 -10 -8 4
-15 1 -15 -7 0 -7 -3 -10 -6 -6 -8 7 -33 -16 -28 -25 3 -4 -5 -5 -16 -3 -13 3
-18 0 -14 -7 5 -7 2 -9 -7 -6 -15 5 -51 -26 -42 -36 3 -3 -4 -3 -16 -1 -13 2
-30 -4 -41 -15 -11 -11 -23 -21 -27 -21 -30 -6 -62 -23 -67 -35 -3 -9 -10 -12
-16 -9 -6 3 -13 -1 -16 -9 -3 -9 -10 -14 -15 -11 -13 8 -49 -18 -49 -35 0 -13
-1 -13 -10 0 -5 8 -10 10 -10 5 0 -6 -9 -16 -21 -23 -17 -11 -20 -11 -14 0 3
7 0 5 -8 -4 -8 -10 -17 -15 -20 -11 -4 3 -7 1 -7 -5 0 -7 -7 -12 -15 -12 -8 0
-15 -4 -15 -10 0 -5 -7 -10 -16 -10 -8 0 -12 -4 -9 -10 3 -5 0 -7 -9 -4 -9 3
-26 -5 -41 -20 -14 -14 -25 -20 -25 -13 0 7 -6 5 -14 -5 -7 -10 -16 -15 -19
-11 -4 3 -7 1 -7 -5 0 -7 -9 -12 -19 -12 -10 0 -21 -7 -25 -15 -3 -8 -9 -15
-13 -14 -19 3 -34 -2 -29 -10 3 -5 -1 -12 -10 -15 -10 -4 -13 -2 -9 7 4 6 -3
1 -15 -13 -12 -14 -19 -18 -15 -10 4 10 2 9 -8 -2 -8 -10 -16 -15 -20 -12 -3
3 -13 -2 -24 -10 -10 -9 -21 -16 -26 -16 -14 1 -35 -25 -29 -35 3 -5 -1 -4
-10 3 -13 10 -16 9 -21 -9 -5 -20 -8 -21 -23 -8 -12 9 -15 10 -10 2 4 -8 2
-13 -4 -13 -6 0 -9 -4 -6 -9 4 -5 -2 -8 -11 -7 -10 2 -24 -4 -31 -13 -8 -9
-10 -10 -7 -3 6 11 3 11 -14 0 -12 -7 -21 -20 -21 -28 0 -13 -1 -13 -10 0 -8
12 -11 11 -17 -9 -6 -23 -7 -24 -14 -5 -6 15 -8 15 -8 3 -1 -15 -34 -33 -55
-30 -5 1 -6 -4 -3 -12 3 -7 -1 -14 -9 -14 -7 0 -10 5 -7 10 4 6 1 7 -6 3 -7
-5 -10 -14 -7 -21 3 -8 -2 -11 -15 -8 -11 3 -21 -1 -25 -10 -3 -9 -11 -14 -18
-11 -7 3 -19 -2 -26 -11 -7 -8 -19 -15 -26 -15 -8 0 -14 -5 -14 -11 0 -6 -7
-9 -15 -5 -11 4 -15 -1 -15 -17 0 -18 -2 -19 -10 -7 -6 9 -13 11 -17 5 -5 -5
-17 -17 -27 -25 -18 -13 -19 -13 -11 0 4 8 -2 5 -14 -7 -12 -13 -33 -26 -47
-29 -15 -4 -23 -12 -20 -19 3 -8 -2 -11 -15 -8 -11 3 -19 0 -19 -7 0 -7 -8
-10 -19 -7 -14 3 -18 1 -14 -10 3 -7 2 -13 -3 -12 -23 4 -35 -2 -28 -13 6 -10
4 -10 -8 0 -13 10 -18 10 -24 1 -4 -8 -3 -9 4 -5 7 4 12 3 12 -2 0 -5 -15 -14
-32 -19 -18 -5 -32 -15 -30 -22 1 -7 -2 -9 -9 -6 -6 4 -24 -2 -40 -14 -16 -12
-34 -19 -39 -16 -6 3 -10 -2 -10 -11 0 -10 -3 -14 -7 -11 -3 4 -12 -1 -20 -11
-8 -9 -11 -11 -7 -3 5 10 3 11 -7 5 -64 -42 -95 -59 -103 -56 -5 2 -6 -5 -2
-14 5 -14 4 -15 -9 -4 -10 8 -15 9 -15 1 0 -6 -20 -20 -45 -31 -25 -11 -45
-25 -45 -31 0 -6 -4 -8 -9 -5 -5 3 -14 -1 -21 -9 -7 -8 -18 -15 -26 -15 -7 0
-19 -6 -26 -13 -7 -7 -28 -20 -45 -28 -18 -7 -33 -17 -33 -20 0 -6 -29 -17
-46 -17 -3 -1 -13 -9 -22 -19 -9 -10 -24 -18 -32 -18 -8 0 -14 -5 -13 -12 2
-7 -6 -10 -18 -8 -14 3 -19 0 -16 -9 4 -9 -3 -12 -20 -10 -14 1 -22 0 -19 -3
9 -9 -33 -35 -44 -28 -6 3 -10 0 -10 -9 0 -8 -13 -17 -30 -21 -16 -4 -34 -14
-39 -23 -5 -9 -11 -16 -13 -14 -6 7 -38 -10 -33 -18 3 -5 -5 -6 -17 -2 -14 3
-19 2 -14 -6 5 -8 0 -12 -13 -12 -12 0 -21 -5 -21 -11 0 -6 -7 -9 -15 -5 -9 3
-15 0 -15 -9 0 -8 -7 -15 -16 -15 -8 0 -13 -4 -9 -9 3 -6 -3 -8 -14 -6 -11 2
-22 -3 -25 -11 -3 -9 -10 -12 -16 -9 -5 3 -10 1 -10 -4 0 -6 -7 -11 -16 -11
-9 0 -12 -5 -8 -12 5 -7 3 -8 -6 -3 -8 5 -18 1 -27 -10 -7 -11 -13 -15 -13
-11 0 5 -7 3 -15 -4 -8 -7 -15 -9 -15 -4 0 5 -5 2 -10 -6 -5 -8 -15 -15 -22
-15 -7 -1 -12 -6 -11 -12 1 -6 -6 -9 -19 -5 -14 3 -19 1 -14 -6 5 -8 0 -12
-13 -12 -12 0 -21 -5 -21 -11 0 -6 -7 -8 -17 -5 -10 4 -14 4 -11 0 10 -9 -15
-32 -29 -27 -7 3 -16 -2 -19 -11 -3 -9 -10 -13 -15 -10 -5 3 -9 0 -9 -6 0 -6
-4 -8 -10 -5 -6 3 -10 1 -10 -4 0 -6 -7 -11 -15 -11 -18 0 -20 -42 -4 -72 8
-16 8 -19 -1 -13 -9 6 -10 1 -4 -16 4 -13 8 -41 9 -61 2 -21 8 -44 14 -52 9
-11 9 -16 0 -22 -8 -5 -9 -3 -4 6 6 9 4 11 -4 5 -9 -5 -10 -10 -2 -18 6 -6 11
-19 11 -30 0 -12 4 -16 13 -11 7 5 7 1 -2 -10 -13 -15 -13 -19 0 -27 11 -7 11
-9 0 -9 -11 0 -11 -3 0 -17 12 -15 12 -16 -1 -8 -12 7 -13 6 -4 -6 6 -8 12
-33 13 -55 1 -37 3 -53 11 -89 1 -5 2 -18 1 -28 -1 -16 -3 -16 -15 -4 -8 8
-28 20 -45 27 -17 7 -31 16 -31 20 0 7 -41 22 -48 17 -2 -1 -8 6 -13 16 -6 9
-17 17 -24 17 -8 0 -15 5 -15 11 0 5 -4 8 -9 5 -4 -3 -23 6 -41 19 -19 14 -40
25 -47 25 -7 0 -13 4 -13 8 0 4 -12 13 -27 20 -47 21 -73 39 -67 45 4 4 -3 5
-15 2 -14 -2 -21 1 -21 11 0 8 -4 12 -10 9 -5 -3 -10 -1 -10 5 0 7 -7 10 -15
6 -8 -3 -15 -2 -15 2 0 4 -16 16 -35 26 -19 11 -35 23 -35 27 0 5 -7 6 -15 3
-8 -4 -15 -1 -15 5 0 6 -7 11 -15 11 -8 0 -15 5 -15 10 0 6 -6 10 -14 10 -7 0
-19 6 -26 14 -6 8 -18 12 -26 9 -8 -3 -14 1 -14 11 0 9 -3 16 -7 15 -15 -2
-53 13 -53 22 0 4 -16 13 -34 20 -19 7 -33 16 -30 21 3 4 -4 8 -14 8 -11 0
-25 7 -32 15 -7 9 -15 13 -18 11 -2 -3 -11 2 -19 10 -8 8 -19 12 -24 9 -5 -4
-9 1 -9 9 0 10 -6 13 -17 9 -11 -4 -14 -3 -9 5 5 8 0 12 -13 12 -12 0 -21 3
-21 8 0 4 -10 12 -23 18 -45 21 -142 77 -158 90 -9 8 -19 11 -22 7 -4 -3 -7
-1 -7 6 0 8 -6 11 -16 7 -8 -3 -13 -2 -10 3 3 4 -15 18 -39 30 -25 12 -45 26
-45 30 0 4 -6 8 -13 8 -6 0 -31 12 -54 26 -24 15 -47 27 -53 27 -6 0 -8 5 -4
12 4 6 3 8 -3 5 -6 -4 -22 3 -37 14 -14 11 -30 18 -35 15 -5 -3 -12 1 -15 10
-6 16 -26 11 -26 -7 0 -6 4 -8 8 -5 5 3 8 -9 7 -27 -2 -18 2 -37 7 -43 5 -7 8
-16 7 -20 -1 -5 1 -20 4 -34 4 -14 8 -34 10 -45 1 -11 6 -25 9 -31 4 -6 8 -27
10 -47 1 -21 6 -37 11 -37 5 0 7 -11 5 -25 -3 -14 -1 -25 3 -25 5 0 8 -3 7 -7
-2 -11 23 -126 30 -138 3 -5 6 -21 6 -35 0 -14 3 -27 7 -30 5 -3 9 -22 11 -43
1 -20 5 -37 8 -37 3 0 7 -16 8 -37 2 -20 6 -41 10 -47 4 -6 7 -19 8 -28 1 -10
3 -20 4 -23 4 -8 22 -95 26 -120 0 -5 4 -18 9 -27 4 -10 8 -30 8 -45 1 -16 5
-30 9 -33 4 -3 8 -20 10 -38 1 -18 6 -32 11 -32 4 0 6 -4 3 -9 -3 -5 1 -29 8
-55 8 -25 11 -46 8 -46 -4 0 0 -5 8 -10 12 -8 12 -10 1 -10 -9 0 -10 -4 -4
-12 6 -7 9 -21 8 -31 -2 -9 0 -15 4 -12 5 2 8 -9 9 -25 0 -16 4 -35 8 -42 7
-11 15 -51 17 -85 0 -7 4 -13 8 -13 4 0 6 -11 4 -25 -1 -14 2 -28 6 -31 5 -3
9 -16 9 -29 0 -13 5 -27 10 -30 6 -4 8 -11 4 -16 -3 -5 -1 -24 5 -42 6 -17 12
-44 13 -59 1 -16 6 -28 11 -28 5 0 7 -11 5 -25 -3 -14 -1 -28 4 -31 4 -3 6
-10 3 -15 -4 -5 -2 -9 3 -9 6 0 9 -13 8 -30 -1 -16 2 -30 7 -30 5 0 7 -6 4
-14 -3 -7 0 -19 6 -25 6 -6 7 -11 3 -11 -5 0 -3 -7 4 -15 10 -12 10 -15 0 -15
-10 0 -10 -3 0 -15 7 -8 9 -15 5 -15 -4 0 -3 -6 2 -12 5 -7 10 -26 12 -43 2
-16 6 -32 10 -35 4 -3 7 -21 7 -42 -1 -20 2 -34 7 -31 4 2 8 -3 8 -11 1 -9 2
-19 3 -23 1 -5 6 -28 11 -53 9 -48 11 -56 15 -67 1 -5 3 -12 5 -18 1 -5 3 -12
4 -15 2 -3 5 -16 7 -30 7 -42 12 -65 14 -65 1 0 4 -13 6 -30 3 -16 11 -33 17
-37 9 -6 9 -8 -1 -8 -9 0 -10 -5 -3 -19 6 -10 7 -21 4 -25 -3 -3 -2 -6 3 -6 5
0 10 -14 11 -31 1 -17 6 -36 10 -43 5 -6 8 -23 7 -39 0 -15 3 -27 9 -27 5 0 7
-6 4 -14 -3 -8 -3 -17 1 -20 3 -4 7 -12 8 -19 1 -7 6 -21 10 -31 6 -15 4 -17
-7 -11 -12 7 -12 6 -1 -7 7 -9 15 -29 17 -45 2 -15 4 -29 6 -30 1 -2 2 -6 3
-10 1 -5 10 -43 20 -85 9 -43 14 -83 10 -89 -4 -7 -3 -9 2 -6 5 3 14 -10 20
-28 6 -19 7 -32 3 -30 -8 5 8 -48 23 -79 7 -14 6 -16 -4 -10 -10 6 -11 5 -1
-7 6 -8 12 -17 12 -21 1 -5 1 -9 2 -10 2 -7 10 -64 11 -75 1 -7 5 -13 9 -13 4
0 6 -13 5 -30 -1 -16 1 -31 6 -32 4 -2 9 -15 10 -30 1 -16 7 -28 13 -28 5 0 3
-5 -5 -10 -8 -5 -10 -10 -5 -10 9 0 15 -21 18 -67 0 -7 3 -13 7 -13 4 0 6 -10
6 -23 -1 -12 1 -27 6 -33 4 -6 9 -23 10 -38 1 -14 5 -26 9 -26 3 0 5 -10 4
-23 -1 -12 3 -28 9 -36 9 -12 8 -13 -4 -7 -12 6 -11 4 1 -6 9 -7 14 -19 11
-26 -2 -7 2 -20 10 -29 11 -14 11 -16 0 -9 -11 7 -12 4 -3 -12 6 -12 12 -32
13 -46 1 -15 5 -26 9 -26 4 0 6 -15 5 -34 -1 -19 2 -32 5 -30 4 2 9 -3 13 -11
3 -8 1 -15 -5 -15 -5 0 -2 -14 6 -31 9 -17 14 -33 11 -36 -3 -3 -1 -14 5 -24
7 -14 6 -19 -3 -19 -8 0 -6 -5 5 -11 9 -6 15 -14 12 -19 -3 -5 -1 -12 5 -15 8
-5 7 -11 -1 -21 -7 -9 -8 -14 -1 -14 6 0 11 -8 11 -17 0 -22 5 -45 12 -58 4
-5 5 -20 4 -32 -1 -12 2 -20 7 -17 8 5 10 -2 12 -60 0 -19 4 -32 7 -30 6 3 21
-63 24 -101 0 -5 4 -15 7 -21 4 -6 8 -27 10 -47 1 -21 6 -37 10 -37 10 0 5
-37 -7 -47 -4 -5 -5 -2 -1 5 4 7 2 12 -6 12 -10 0 -10 2 1 9 9 6 10 11 2 15
-6 4 -9 12 -6 17 4 5 1 9 -6 9 -7 0 -9 3 -6 7 4 3 2 12 -4 20 -9 9 -8 13 0 13
6 0 11 5 11 11 0 5 -4 7 -10 4 -5 -3 -11 1 -11 9 -2 24 -4 30 -12 43 -4 6 -4
18 -1 27 3 9 2 16 -3 16 -9 0 -13 14 -14 53 0 9 -4 15 -8 13 -4 -3 -8 0 -8 7
0 7 -3 23 -6 37 -4 14 -9 38 -12 55 -3 16 -11 35 -16 42 -6 7 -8 17 -5 22 4 5
1 13 -5 16 -5 4 -8 13 -5 21 3 7 1 16 -5 19 -5 4 -7 11 -4 16 4 5 2 9 -4 9 -6
0 -8 7 -5 15 4 8 1 22 -6 30 -7 8 -10 21 -7 30 4 8 2 17 -2 19 -9 6 -24 61
-24 89 0 9 -4 17 -10 17 -6 0 -8 3 -4 6 3 3 -1 23 -8 44 -7 21 -11 41 -8 44 4
3 1 6 -6 6 -7 0 -10 10 -7 25 3 14 0 25 -5 25 -5 0 -9 10 -9 23 0 13 -6 29
-12 36 -11 11 -10 12 2 6 13 -8 13 -6 2 8 -8 9 -11 21 -7 27 3 5 1 10 -6 10
-7 0 -9 3 -6 6 3 4 2 14 -3 24 -5 9 -11 28 -14 41 -3 13 -9 41 -15 61 -5 20
-6 39 -3 42 3 4 0 6 -6 6 -7 0 -12 14 -12 30 0 17 -5 30 -11 30 -6 0 -9 10 -8
23 2 12 1 27 -2 32 -8 13 -22 65 -24 87 -1 10 -7 23 -12 30 -5 7 -8 23 -7 35
0 13 -2 23 -6 23 -4 0 -10 12 -13 27 -3 16 -8 42 -12 58 -4 17 -8 36 -8 43 0
6 -3 12 -7 12 -4 0 -7 6 -8 13 0 6 -3 19 -5 27 -2 8 -7 32 -12 52 -4 21 -10
38 -14 38 -3 0 -7 17 -9 37 -1 20 -7 42 -13 49 -6 8 -9 20 -6 28 3 8 3 17 -1
21 -4 4 -7 10 -7 13 -1 4 -6 17 -13 29 -10 19 -10 23 0 23 10 0 10 2 0 9 -11
7 -21 43 -24 89 -1 6 -4 12 -8 12 -5 0 -9 18 -12 58 -1 6 -4 12 -7 12 -4 0 -8
11 -9 25 -1 14 -9 40 -18 56 -11 23 -12 29 -2 23 10 -6 10 -4 -1 9 -7 9 -11
17 -7 17 4 0 -1 14 -10 31 -11 23 -12 29 -2 23 10 -6 11 -5 1 8 -7 8 -10 18
-6 21 3 4 2 7 -3 7 -5 0 -11 12 -12 27 -1 15 -5 29 -10 32 -4 3 -8 22 -10 41
-1 19 -6 37 -10 40 -4 3 -9 16 -11 30 -1 14 -7 33 -12 42 -6 11 -5 18 4 21 6
3 3 6 -8 6 -17 1 -17 3 -5 11 12 7 12 10 1 10 -7 0 -11 6 -8 15 4 8 2 17 -3
20 -6 4 -10 19 -10 36 0 16 -4 29 -8 29 -7 0 -12 24 -15 68 0 6 -3 12 -7 12
-4 0 -7 6 -8 13 0 6 -6 32 -12 57 -7 25 -13 50 -14 57 -1 7 -5 16 -9 19 -4 4
-7 17 -7 29 0 12 -3 25 -7 28 -3 4 -8 21 -10 39 -2 17 -8 37 -14 45 -6 7 -9
13 -5 13 3 0 1 11 -4 25 -5 14 -12 36 -14 48 -8 42 -31 122 -36 127 -3 3 -6
16 -8 30 -1 14 -3 31 -4 38 -1 6 -5 12 -9 12 -4 0 -6 13 -5 29 1 17 -2 28 -6
25 -7 -5 -12 18 -9 39 0 4 -3 7 -7 7 -5 0 -8 10 -7 23 1 12 -2 27 -6 33 -5 6
-10 23 -11 38 -1 14 -6 26 -11 26 -4 0 -7 8 -5 18 1 9 0 22 -3 27 -5 8 -51
174 -64 230 -1 6 -5 17 -8 25 -4 8 -8 26 -11 40 -2 14 -9 39 -16 55 -6 17 -11
31 -11 33 1 1 1 3 0 5 0 1 -3 13 -6 27 -6 34 -9 42 -18 64 -4 10 -8 31 -9 46
-1 15 -5 25 -10 22 -5 -3 -7 2 -3 10 3 9 -1 28 -9 43 -8 15 -12 31 -9 35 3 5
1 11 -5 15 -6 4 -8 10 -5 15 3 5 1 11 -4 15 -6 3 -8 12 -5 19 3 8 0 17 -5 21
-6 3 -9 11 -5 16 3 5 1 16 -5 23 -6 7 -12 29 -13 48 -2 20 -6 34 -10 31 -5 -2
-8 7 -8 21 0 19 -4 24 -16 19 -9 -3 -12 -9 -7 -12 4 -3 8 -36 8 -73 0 -38 3
-68 6 -68 10 0 5 -34 -6 -42 -7 -5 -7 -8 0 -8 10 0 17 -74 18 -177 1 -23 3
-40 6 -38 3 1 6 -27 7 -63 1 -99 9 -197 17 -209 4 -7 3 -14 -3 -18 -6 -4 -7
-11 -4 -17 4 -6 8 -36 10 -67 7 -139 14 -233 19 -262 4 -22 2 -28 -6 -23 -8 5
-9 3 -3 -7 12 -19 13 -32 17 -120 2 -42 8 -82 12 -89 6 -9 4 -11 -5 -5 -9 6
-11 4 -5 -5 5 -8 10 -50 12 -94 3 -44 9 -83 14 -87 6 -3 9 -8 8 -10 -6 -8 24
-99 33 -99 5 0 6 -4 3 -10 -3 -5 1 -23 10 -40 8 -16 13 -30 10 -30 -3 0 1 -14
10 -30 9 -17 12 -30 9 -30 -4 0 1 -9 11 -20 10 -11 15 -20 10 -20 -4 0 -2 -7
5 -15 7 -8 10 -15 7 -15 -3 0 0 -15 8 -34 8 -18 11 -36 8 -40 -4 -3 -2 -6 4
-6 6 0 13 -10 16 -22 5 -21 40 -123 54 -158 3 -8 7 -17 8 -20 1 -3 4 -12 7
-20 18 -46 21 -57 25 -74 2 -11 8 -25 14 -33 6 -7 8 -13 4 -13 -4 0 -2 -6 4
-13 6 -8 8 -17 4 -20 -3 -4 -1 -7 6 -7 7 0 9 -4 6 -10 -3 -6 -1 -10 5 -10 6 0
8 -11 6 -25 -3 -15 0 -24 7 -22 6 1 11 -5 12 -13 0 -16 11 -53 25 -85 25 -59
39 -105 32 -105 -4 0 -1 -4 5 -8 7 -5 14 -20 15 -34 1 -15 6 -24 10 -22 4 3 8
-6 8 -20 0 -14 5 -28 10 -31 5 -3 10 -15 10 -26 0 -10 5 -19 11 -19 5 0 7 -4
4 -10 -3 -5 0 -24 8 -42 21 -47 29 -70 34 -93 2 -10 8 -22 14 -25 5 -4 9 -11
8 -16 -1 -5 0 -12 1 -16 1 -5 3 -11 5 -15 1 -5 7 -21 13 -36 7 -16 10 -33 6
-38 -3 -5 0 -9 5 -9 6 0 11 -9 11 -21 0 -13 4 -18 12 -13 7 5 9 2 6 -8 -4 -8
0 -28 7 -44 14 -31 27 -67 25 -72 0 -1 7 -16 15 -32 9 -17 13 -30 10 -30 -3 0
0 -10 7 -22 6 -13 13 -32 15 -42 2 -11 7 -24 12 -30 9 -11 31 -84 30 -100 0
-5 4 -12 10 -15 6 -4 12 -19 13 -33 1 -15 6 -24 10 -22 4 3 8 -6 8 -20 0 -14
5 -28 10 -31 6 -4 8 -10 5 -15 -3 -5 -1 -11 5 -15 6 -4 8 -11 5 -16 -4 -5 -2
-9 3 -9 5 0 9 -7 10 -15 1 -8 3 -22 4 -30 1 -8 5 -15 10 -15 5 0 6 -5 3 -10
-3 -5 -1 -10 5 -10 6 0 10 -6 9 -12 -1 -7 1 -21 4 -30 4 -10 10 -26 14 -35 3
-10 7 -20 7 -23 1 -3 5 -11 9 -17 5 -7 5 -13 0 -13 -4 0 -3 -4 4 -8 6 -4 13
-19 15 -32 2 -14 9 -34 15 -45 6 -11 12 -24 13 -30 4 -15 11 -37 22 -67 6 -15
10 -30 9 -33 -1 -3 6 -19 14 -35 9 -17 12 -30 8 -30 -5 0 -3 -4 3 -8 11 -7 50
-121 46 -134 -1 -5 3 -8 9 -8 5 0 7 -5 4 -10 -3 -6 -2 -10 3 -10 5 0 9 -6 9
-12 1 -23 8 -43 18 -50 5 -4 10 -13 10 -20 2 -24 18 -73 33 -95 10 -16 11 -23
2 -23 -7 0 -6 -6 4 -16 9 -8 17 -22 17 -30 2 -23 4 -28 14 -44 5 -8 11 -23 12
-34 2 -10 10 -33 19 -52 9 -18 12 -38 8 -45 -4 -8 -3 -9 4 -5 12 7 15 -1 15
-36 0 -10 4 -18 8 -18 5 0 8 -3 7 -7 -1 -5 6 -25 15 -47 9 -21 17 -44 17 -52
0 -7 4 -16 10 -19 5 -3 10 -17 10 -31 0 -13 4 -24 9 -24 5 0 11 -12 13 -27 3
-30 33 -42 66 -27 17 7 32 11 67 16 11 2 26 7 33 11 6 5 16 6 21 2 5 -3 13 -1
16 5 5 8 12 7 23 -2 10 -8 13 -9 9 -1 -8 14 46 28 64 17 8 -5 9 -3 4 6 -6 10
-4 12 8 7 9 -3 19 -2 23 4 3 6 12 8 20 5 8 -3 14 -2 14 3 0 4 16 7 34 6 19 -1
33 2 30 7 -3 4 7 9 23 10 46 2 51 3 59 11 4 4 18 7 30 7 13 0 26 5 29 10 5 8
12 7 23 -2 12 -10 14 -10 8 0 -5 8 1 12 21 13 15 1 31 1 36 0 4 0 7 4 7 10 0
5 4 8 9 5 5 -4 22 -1 38 6 15 6 40 11 56 10 15 0 27 4 27 9 0 6 4 7 10 4 6 -3
10 -3 10 2 0 12 54 10 62 -2 5 -6 8 -3 8 7 0 12 6 16 21 13 12 -3 27 -1 33 3
14 8 44 15 78 16 14 1 24 4 21 9 -2 4 6 7 19 7 13 0 30 6 37 13 11 10 12 9 6
-2 -6 -10 -4 -12 6 -5 8 4 23 10 34 12 37 7 40 8 53 16 7 4 16 6 19 3 3 -3 17
-1 32 5 14 5 35 11 46 13 11 2 31 6 45 10 14 4 35 7 48 6 13 0 21 3 18 7 -3 4
5 8 17 9 12 1 33 4 47 8 14 4 36 7 50 8 14 1 27 5 30 8 3 4 23 9 45 12 22 3
41 10 43 15 1 5 12 8 23 5 11 -3 31 0 44 7 13 7 32 11 42 8 10 -3 24 0 30 7 6
6 21 11 34 10 13 -1 30 5 37 12 11 10 17 11 28 2 8 -7 14 -7 14 -1 0 6 14 5
37 -3 20 -7 44 -12 52 -10 9 1 19 -2 22 -7 3 -5 22 -9 42 -10 20 -1 37 -4 37
-8 0 -3 17 -7 37 -8 20 -2 42 -6 48 -11 5 -4 25 -7 43 -7 17 1 32 -2 32 -6 0
-5 3 -7 8 -7 4 1 9 0 12 -1 3 -1 21 -3 40 -5 19 -2 36 -7 37 -12 2 -4 21 -8
43 -7 21 0 37 -3 34 -8 -3 -4 5 -6 18 -4 13 2 28 0 33 -4 6 -4 33 -11 60 -15
28 -3 51 -10 53 -15 2 -5 9 -7 17 -4 7 3 23 0 35 -6 18 -10 21 -10 15 2 -6 10
-5 11 6 0 7 -6 26 -12 41 -12 15 0 28 -4 28 -8 0 -4 9 -8 20 -9 13 -1 18 2 13
10 -5 9 -3 9 8 0 15 -12 53 -23 101 -28 14 -2 32 -7 40 -11 7 -5 26 -9 43 -11
29 -2 70 -10 70 -13 0 -2 36 -9 65 -13 14 -2 31 -6 36 -10 6 -3 27 -7 47 -9
21 -1 37 -5 37 -8 0 -3 17 -7 37 -8 21 -2 40 -6 43 -10 3 -4 13 -8 24 -10 13
-2 16 1 10 10 -6 10 -5 11 7 1 9 -7 26 -15 40 -17 13 -3 24 -5 24 -6 0 -1 11
-4 25 -6 47 -8 65 -11 65 -13 0 -2 26 -8 63 -14 9 -1 23 -7 31 -11 10 -7 12
-5 6 5 -6 11 -5 12 6 2 7 -7 21 -13 30 -13 12 0 17 -6 14 -20 -2 -11 0 -22 5
-25 5 -3 7 3 5 14 -2 11 3 22 12 25 12 5 13 9 4 20 -8 10 -9 16 -1 21 5 3 10
15 10 26 0 10 5 19 11 19 6 0 9 6 6 13 -3 8 -1 20 3 28 5 8 4 19 -3 28 -9 11
-9 13 0 8 20 -13 38 31 18 45 -6 5 -2 8 8 8 10 0 16 4 13 8 -3 5 1 20 8 33 7
14 12 33 10 42 -1 9 2 17 7 17 5 0 9 9 9 20 0 11 4 20 10 20 5 0 7 7 4 15 -4
8 -2 21 4 28 8 10 15 30 37 107 19 68 39 127 46 135 4 6 10 22 12 35 2 14 9
36 14 50 6 14 9 28 6 33 -2 4 1 7 7 7 6 0 9 4 5 9 -3 5 -1 12 5 16 6 4 8 11 5
16 -4 5 -3 15 2 21 4 7 8 16 9 21 1 4 3 9 4 12 1 3 4 10 5 15 1 6 4 12 5 15 1
3 4 10 5 15 1 6 4 12 5 15 1 3 3 8 5 13 1 4 4 14 7 22 37 98 106 335 101 343
-3 5 -1 7 4 4 6 -4 14 7 18 26 4 17 9 39 12 47 2 8 5 21 5 28 1 6 5 12 9 12 4
0 6 9 4 20 -2 11 0 18 4 15 8 -4 17 28 23 73 1 6 6 12 11 12 6 0 8 3 4 6 -3 4
0 22 8 40 8 19 11 34 8 34 -3 0 -1 6 4 12 10 12 22 50 30 92 2 11 8 24 13 30
5 7 10 23 12 36 2 14 7 30 10 36 4 6 9 22 12 36 2 15 9 36 16 47 6 12 8 21 5
21 -3 0 1 13 9 29 9 16 12 31 9 35 -4 3 -1 6 5 6 7 0 11 3 10 7 -3 15 14 83
21 79 3 -2 7 10 8 27 2 18 7 33 13 35 6 2 8 7 5 12 -6 10 15 62 30 72 6 5 5 8
-4 8 -10 0 -11 3 -2 13 6 8 8 17 4 20 -3 4 0 7 8 7 11 0 11 2 -1 10 -13 8 -12
10 3 10 10 0 15 5 12 10 -3 6 -3 16 2 23 4 6 8 17 9 22 3 34 18 75 26 75 6 0
8 6 5 13 -3 8 1 27 8 43 14 30 75 224 76 236 0 4 8 28 19 53 11 25 19 49 18
53 -1 4 3 17 10 30 7 12 10 22 6 22 -3 0 -2 6 4 13 6 6 11 15 11 20 2 20 15
63 22 72 8 11 9 15 9 46 0 11 4 18 9 14 6 -3 8 4 6 15 -2 11 0 20 6 20 5 0 8
3 7 8 -3 12 14 77 22 82 4 3 10 19 11 35 2 17 7 32 11 35 4 3 9 19 12 35 2 17
5 32 6 35 1 3 2 8 1 13 0 4 4 7 11 7 6 0 9 3 6 6 -4 3 0 21 8 40 8 19 12 34 9
34 -3 0 2 14 10 30 9 17 13 35 10 39 -3 5 -1 11 4 13 6 1 12 15 15 30 2 14 9
36 16 47 6 12 8 21 4 21 -3 0 -2 6 4 13 6 6 11 15 11 19 6 39 15 69 22 74 5 3
7 10 4 15 -4 5 0 9 7 9 10 0 9 3 -2 10 -12 8 -12 10 2 15 9 4 14 13 11 21 -3
8 -1 20 5 27 10 13 26 67 24 80 -1 4 2 7 6 7 5 0 9 6 10 13 2 29 61 219 71
227 3 3 6 10 7 15 0 16 16 69 23 80 4 6 7 17 6 25 0 8 3 17 7 20 3 3 9 17 11
30 4 25 22 73 34 93 3 6 1 7 -5 4 -7 -5 -6 1 1 17 7 13 14 23 17 21 3 -2 6 4
7 13 3 43 11 74 19 80 5 4 9 17 8 30 -1 12 3 22 7 22 5 0 9 45 9 99 0 75 -4
103 -15 115 -8 8 -15 19 -15 24 0 6 -7 13 -16 16 -9 4 -14 9 -11 12 3 3 -8 18
-24 33 -16 16 -29 32 -29 37 0 5 -12 17 -26 28 -25 18 -26 18 -23 0 1 -11 -3
-32 -9 -47 -7 -16 -12 -37 -12 -48 0 -10 -3 -19 -7 -19 -5 0 -9 -10 -10 -23
-2 -23 -10 -62 -13 -62 -1 0 -3 -8 -6 -17 -2 -10 -6 -26 -8 -35 -3 -10 -5 -18
-6 -18 -2 0 -10 -36 -12 -57 -1 -10 -5 -18 -8 -18 -3 0 -7 -12 -8 -27 -1 -15
-6 -29 -10 -32 -4 -3 -7 -16 -6 -29 1 -13 -4 -29 -10 -35 -6 -7 -12 -25 -13
-42 -4 -50 -6 -55 -16 -55 -6 0 -8 -2 -5 -6 3 -3 0 -25 -8 -50 -7 -24 -10 -44
-7 -44 3 0 0 -6 -6 -13 -6 -8 -8 -17 -4 -20 3 -4 1 -7 -5 -7 -7 0 -11 -3 -11
-7 1 -5 0 -10 -1 -13 -1 -3 -3 -16 -5 -30 -2 -14 -5 -32 -7 -40 -3 -8 -8 -32
-13 -53 -4 -20 -11 -40 -16 -42 -4 -3 -6 -14 -4 -25 2 -11 -1 -20 -6 -20 -6 0
-7 -4 -4 -10 3 -5 3 -16 -2 -22 -4 -7 -8 -16 -9 -20 -1 -5 -3 -11 -4 -15 -1
-5 -3 -12 -4 -18 -6 -29 -18 -72 -25 -85 -4 -8 -7 -24 -5 -35 2 -11 -2 -22 -8
-26 -6 -4 -10 -18 -10 -33 0 -14 -5 -26 -10 -26 -5 0 -7 -4 -4 -9 3 -5 -1 -27
-9 -50 -8 -23 -15 -45 -16 -49 -1 -4 -3 -11 -4 -17 -2 -5 -6 -23 -9 -40 -7
-34 -14 -59 -16 -62 -2 -2 -4 -7 -5 -13 -1 -5 -3 -11 -5 -12 -2 -3 -5 -16 -13
-58 -3 -14 -8 -32 -11 -40 -3 -8 -8 -27 -10 -43 -3 -15 -11 -41 -19 -57 -11
-21 -12 -30 -3 -34 8 -3 7 -5 -1 -5 -7 -1 -10 -8 -7 -16 4 -8 1 -15 -5 -15 -6
0 -10 -3 -9 -7 1 -5 -6 -42 -17 -83 -11 -41 -18 -78 -17 -82 1 -5 -2 -8 -6 -8
-4 0 -9 -8 -10 -17 -2 -21 -10 -57 -12 -60 -2 -2 -4 -7 -5 -13 -1 -5 -4 -11
-5 -12 -1 -2 -3 -14 -4 -28 -2 -14 -7 -34 -12 -45 -6 -11 -10 -29 -10 -40 1
-11 -3 -23 -7 -26 -4 -3 -10 -18 -13 -33 -2 -15 -11 -45 -18 -67 -9 -26 -10
-36 -2 -32 7 4 6 1 -1 -8 -7 -9 -14 -25 -16 -37 -2 -12 -6 -24 -9 -28 -4 -3
-4 -12 -1 -20 3 -8 0 -14 -6 -14 -6 0 -10 -3 -10 -7 1 -5 0 -10 -1 -13 -1 -3
-3 -14 -5 -25 -5 -26 -13 -60 -15 -60 -1 0 -3 -7 -5 -15 -2 -8 -6 -28 -10 -45
-4 -16 -8 -40 -9 -52 0 -11 -4 -19 -8 -16 -5 2 -8 -2 -9 -9 -1 -18 -5 -37 -19
-88 -7 -25 -14 -52 -15 -60 -2 -14 -5 -25 -22 -67 -3 -10 -6 -28 -6 -41 0 -12
-4 -22 -9 -22 -5 0 -7 -4 -3 -9 3 -5 1 -12 -5 -16 -6 -4 -7 -11 -4 -17 4 -6 0
-14 -7 -19 -12 -7 -11 -9 1 -9 11 0 12 -2 3 -8 -7 -5 -14 -20 -15 -35 -1 -15
-6 -27 -10 -27 -4 0 -7 -3 -7 -7 1 -5 0 -12 -1 -18 -1 -5 -3 -14 -5 -20 -1 -5
-3 -20 -3 -33 -1 -15 -6 -21 -14 -16 -7 4 -8 3 -4 -4 4 -6 1 -31 -5 -54 -22
-76 -27 -99 -28 -116 -1 -7 -5 -10 -11 -7 -5 3 -7 0 -4 -9 3 -8 0 -24 -6 -36
-9 -17 -9 -21 0 -15 8 5 9 2 1 -11 -16 -30 -24 -57 -28 -88 -2 -16 -7 -34 -12
-40 -5 -6 -7 -19 -6 -28 2 -10 -1 -18 -6 -18 -5 0 -8 -3 -8 -7 5 -28 -2 -53
-13 -47 -7 4 -8 3 -4 -5 4 -6 2 -18 -4 -26 -10 -12 -10 -15 1 -15 10 0 10 -3
1 -12 -7 -7 -12 -22 -12 -33 0 -12 -3 -25 -7 -29 -4 -3 -8 -17 -10 -29 -2 -12
-6 -29 -10 -37 -3 -8 -5 -21 -4 -27 1 -7 -3 -13 -10 -13 -8 0 -7 -5 2 -17 10
-11 10 -14 2 -9 -12 6 -19 -18 -14 -46 0 -5 -3 -8 -8 -8 -4 0 -8 -8 -8 -17 0
-28 -15 -83 -22 -79 -3 2 -7 -12 -8 -33 -1 -20 -11 -59 -21 -86 -10 -28 -18
-59 -16 -68 1 -9 -1 -17 -6 -17 -5 0 -7 -11 -5 -25 1 -14 -1 -25 -5 -25 -9 0
-24 -62 -24 -97 0 -12 -5 -21 -10 -20 -6 1 -10 -8 -10 -21 1 -12 -2 -22 -6
-22 -3 0 -6 -10 -5 -22 2 -26 -4 -48 -14 -48 -4 0 -7 9 -7 20 0 11 4 20 8 20
4 0 8 5 8 11 0 5 -6 7 -12 3 -10 -6 -10 -4 -2 7 13 16 28 66 27 92 0 9 3 17 7
17 5 0 6 10 2 22 -3 13 -1 19 5 15 6 -4 9 4 7 21 -1 14 1 31 6 37 5 6 10 28
12 48 1 20 5 37 9 37 5 0 6 9 4 20 -2 11 1 20 7 20 6 0 8 3 5 7 -4 3 -1 13 6
21 10 13 9 14 -2 7 -10 -5 -12 -4 -7 3 4 7 9 22 12 34 9 41 12 53 15 53 2 0 8
35 11 70 2 17 6 32 10 35 3 3 9 21 11 40 3 19 6 35 7 35 1 0 4 11 7 25 2 14 6
32 8 40 2 8 4 23 4 33 1 10 4 16 9 14 4 -3 8 7 8 21 3 45 8 72 14 72 4 0 6 10
5 23 -1 12 2 28 8 35 5 6 7 12 3 12 -3 0 -1 11 4 24 6 16 5 27 -3 35 -9 10 -9
12 2 9 7 -2 15 6 16 17 1 11 6 34 9 50 4 17 9 41 12 55 2 14 7 32 10 40 3 8 8
29 11 45 3 17 9 38 15 49 8 14 7 17 -4 11 -10 -6 -11 -5 0 6 6 7 12 23 12 36
0 13 6 23 13 23 9 0 8 3 -2 9 -10 6 -10 10 -1 16 6 4 9 13 6 21 -3 8 0 14 7
14 8 0 8 3 -2 9 -8 5 -9 10 -3 12 6 2 13 19 16 37 3 17 9 47 12 65 3 17 9 39
14 47 4 8 6 25 5 38 -1 12 2 22 7 22 4 0 8 10 8 23 0 13 6 29 13 36 10 11 9
12 -3 6 -12 -7 -13 -6 -4 6 6 8 10 22 9 32 -2 9 0 17 4 17 4 0 8 17 9 37 2 21
6 40 10 43 4 3 7 14 7 25 0 11 3 25 8 31 4 7 7 16 6 20 -1 5 0 11 1 14 3 10 9
36 16 70 3 19 11 38 17 42 9 6 8 8 -2 8 -9 0 -10 4 -4 13 6 6 9 22 8 34 -1 12
2 20 6 17 4 -2 8 4 8 13 -1 10 2 32 6 48 4 17 7 37 8 45 0 8 3 20 8 26 5 6 10
25 11 43 1 18 6 35 10 37 4 3 8 21 8 40 0 19 3 33 8 30 4 -2 7 13 7 35 0 21 3
39 8 39 4 0 5 5 2 10 -3 6 -2 10 4 10 5 0 8 8 7 18 -2 9 4 40 12 67 8 28 16
59 17 70 3 28 15 76 26 103 7 18 6 21 -3 16 -9 -6 -9 -3 1 9 7 9 11 23 8 31
-3 8 -2 16 3 18 6 2 11 15 12 31 1 15 5 27 8 27 3 0 6 8 6 18 0 9 4 28 8 41 6
18 5 22 -5 17 -9 -5 -9 -3 1 6 8 7 16 20 16 28 1 8 5 29 9 45 4 17 7 38 7 48
-1 9 3 17 8 17 4 0 7 11 5 25 -1 14 1 25 4 25 6 0 8 10 13 65 1 14 5 25 8 25
4 0 7 6 7 13 0 6 4 26 8 42 4 17 8 38 9 47 1 10 5 21 9 24 4 4 7 20 7 36 0 16
5 39 11 50 9 16 8 19 -3 13 -10 -6 -11 -5 0 6 6 7 12 23 12 36 0 13 4 23 8 23
4 0 8 10 9 23 0 12 4 36 7 52 4 17 8 36 8 43 1 6 5 12 10 12 5 0 6 11 4 25 -3
13 -1 27 4 30 5 3 7 12 3 20 -3 8 0 15 6 15 6 0 8 7 5 15 -4 8 -1 15 6 15 10
0 10 3 1 14 -7 8 -8 17 -3 20 6 3 12 20 15 38 5 34 14 71 17 76 2 1 3 10 4 20
1 9 5 23 9 30 5 6 6 12 3 12 -2 0 0 15 5 33 11 37 21 86 22 105 0 6 3 12 7 12
4 0 6 14 5 30 -1 17 2 30 8 30 5 0 7 7 4 15 -4 8 -2 17 4 20 5 4 7 10 4 15 -3
5 -1 11 5 15 6 4 8 10 6 14 -4 6 3 44 21 116 14 58 25 112 26 128 1 9 4 17 7
17 9 0 6 57 -2 66 -5 4 -8 2 -8 -5 0 -6 -11 -16 -25 -21 -14 -5 -25 -15 -25
-21 0 -7 -3 -10 -6 -7 -3 4 -17 0 -31 -7 -15 -8 -30 -12 -35 -9 -4 3 -5 -3 -1
-13 3 -10 3 -15 -2 -11 -8 7 -97 -39 -103 -54 -2 -4 -13 -8 -23 -8 -13 0 -18
-4 -13 -12 5 -7 2 -9 -9 -5 -9 3 -18 0 -21 -9 -3 -9 -10 -13 -15 -10 -5 3 -14
-1 -21 -9 -6 -8 -33 -24 -58 -36 -26 -13 -53 -29 -60 -36 -8 -7 -18 -11 -23
-8 -5 4 -9 2 -9 -3 0 -6 -13 -15 -30 -21 -16 -5 -30 -15 -30 -21 0 -6 -4 -9
-9 -6 -4 3 -16 -3 -26 -14 -10 -11 -27 -20 -37 -20 -10 0 -21 -7 -24 -15 -4
-8 -10 -13 -14 -10 -5 3 -15 -2 -24 -10 -8 -8 -19 -14 -23 -13 -5 2 -15 -3
-23 -10 -16 -14 -82 -55 -90 -57 -13 -2 -56 -30 -68 -44 -8 -9 -11 -10 -7 -4
4 9 1 11 -9 7 -9 -3 -16 -9 -16 -13 0 -4 -22 -18 -50 -32 -27 -13 -50 -28 -50
-32 0 -5 -4 -5 -10 -2 -5 3 -10 1 -10 -4 0 -6 -7 -11 -15 -11 -8 0 -15 -5 -15
-11 0 -5 -4 -8 -9 -4 -6 3 -14 -2 -19 -11 -5 -9 -13 -16 -18 -15 -5 0 -25 -10
-44 -21 -19 -12 -38 -21 -42 -20 -5 1 -8 -3 -8 -9 0 -5 -4 -8 -9 -4 -5 3 -12
1 -16 -5 -3 -6 -19 -17 -34 -24 -25 -13 -27 -13 -26 2 0 10 5 24 10 32 5 9 4
15 -3 18 -8 2 -8 8 2 18 8 8 13 24 11 36 -3 12 3 30 12 40 14 16 14 18 2 13
-10 -4 -16 0 -16 9 0 8 6 12 12 10 8 -3 10 7 9 31 -2 22 1 35 9 35 7 0 6 4 -3
10 -12 8 -12 10 -1 10 8 0 11 7 8 20 -3 10 0 21 7 24 8 3 7 5 -1 5 -7 1 -10 8
-7 16 4 8 9 13 13 11 4 -3 7 4 7 14 0 10 -5 16 -11 12 -6 -4 -6 -1 1 9 5 8 10
23 10 34 -1 11 3 23 8 27 6 4 4 13 -4 23 -11 13 -11 16 0 13 9 -2 14 8 16 27
1 17 3 37 5 45 2 8 -2 14 -9 12 -8 -1 -11 2 -7 8 3 6 11 8 16 5 5 -4 10 0 10
7 1 7 3 24 6 38 2 14 4 35 3 48 0 12 6 22 13 22 9 0 8 3 -2 9 -9 6 -10 11 -2
15 6 4 11 13 11 19 0 7 -4 6 -10 -3 -5 -8 -10 -10 -10 -4 0 5 5 15 11 21 6 6
12 24 14 39 2 16 5 40 7 54 2 14 8 28 13 32 6 5 5 8 -2 8 -7 0 -13 5 -13 11 0
5 5 7 12 3 8 -5 9 -2 5 9 -3 9 -2 19 3 22 7 4 6 13 0 25 -8 15 -6 21 7 29 15
8 16 12 4 23 -12 11 -13 11 -6 -1 5 -10 4 -12 -4 -7 -6 4 -9 12 -5 17 3 5 9 7
14 4 4 -2 10 6 12 20 3 14 1 25 -3 25 -5 0 -6 7 -3 15 4 8 9 13 13 11 3 -2 6
11 5 30 -1 19 2 37 8 40 5 3 4 12 -4 22 -11 13 -11 14 1 7 11 -6 13 -4 8 8 -3
10 -2 17 3 17 5 0 7 7 4 15 -4 8 0 23 7 32 10 12 10 15 2 9 -7 -4 -13 -3 -13
3 0 5 4 12 8 15 4 2 9 21 10 42 2 20 6 42 10 48 12 20 12 46 -1 46 -8 0 -7 4
3 10 13 8 13 12 1 32 -13 22 -13 22 4 8 17 -14 18 -13 12 18 -4 18 -3 31 2 28
5 -3 12 1 15 10 4 10 2 13 -6 8 -8 -5 -9 -2 -4 12 13 30 14 68 2 76 -7 5 -4 8
7 8 10 0 15 5 12 10 -3 6 -3 10 2 10 4 0 9 17 10 38 2 49 11 99 21 120 4 9 8
32 7 50 -1 17 2 32 6 32 9 0 6 20 -5 39 -6 9 -5 12 2 7 6 -3 13 -2 17 4 3 5 2
10 -3 10 -11 0 -8 40 4 48 5 4 9 22 9 40 -1 17 2 32 6 32 9 0 6 20 -4 37 -6 9
-3 11 7 7 11 -4 13 0 9 14 -2 11 0 23 6 26 6 4 11 13 11 19 0 7 -4 6 -10 -3
-6 -9 -10 -10 -10 -3 0 6 4 14 9 18 6 3 8 15 6 27 -3 12 1 26 8 30 9 6 8 8 -3
8 -13 0 -13 2 -1 9 8 5 15 24 17 43 1 18 5 52 8 75 4 24 2 44 -4 48 -5 3 -10
1 -10 -4z m-80 -595 c0 -2 -8 -10 -17 -17 -16 -13 -17 -12 -4 4 13 16 21 21
21 13z m-95 -444 c-3 -3 -11 0 -18 7 -9 10 -8 11 6 5 10 -3 15 -9 12 -12z
m-1095 -726 c0 -3 -4 -8 -10 -11 -5 -3 -10 -1 -10 4 0 6 5 11 10 11 6 0 10 -2
10 -4z m-2714 -4553 c-4 -4 -12 -1 -19 7 -9 10 -9 11 1 6 7 -4 12 -2 13 6 0
11 2 11 6 0 3 -7 2 -16 -1 -19z m3829 -24 c1 -11 -2 -22 -7 -25 -5 -3 -7 8 -6
25 2 33 11 33 13 0z m-3815 -4 c0 -12 -19 -12 -23 0 -4 9 -1 12 9 8 7 -3 14
-7 14 -8z m6 -61 c1 -9 0 -13 -4 -10 -3 4 -7 14 -8 22 -1 9 0 13 4 10 3 -4 7
-14 8 -22z m3794 16 c0 -5 -5 -10 -11 -10 -5 0 -7 5 -4 10 3 6 8 10 11 10 2 0
4 -4 4 -10z m-3783 -62 c-3 -8 -6 -5 -6 6 -1 11 2 17 5 13 3 -3 4 -12 1 -19z
m3763 -18 c0 -5 -5 -10 -11 -10 -5 0 -7 5 -4 10 3 6 8 10 11 10 2 0 4 -4 4
-10z"/>
<path d="M506 5082 c-3 -5 1 -9 9 -9 8 0 12 4 9 9 -3 4 -7 8 -9 8 -2 0 -6 -4
-9 -8z"/>
</g>
</svg>
